<mxfile host="app.diagrams.net" modified="2020-09-25T16:54:59.355Z" agent="5.0 (Windows NT 10.0; Win64; x64) AppleWebKit/537.36 (KHTML, like Gecko) Chrome/85.0.4183.102 Safari/537.36" etag="Yt7i5vC6MfJZfU4XvoMm" version="13.7.5" type="github">
  <diagram id="R2lEEEUBdFMjLlhIrx00" name="Page-1">
    <mxGraphModel dx="3025" dy="1488" grid="1" gridSize="10" guides="1" tooltips="1" connect="1" arrows="1" fold="1" page="1" pageScale="1" pageWidth="850" pageHeight="1100" math="0" shadow="0" extFonts="Permanent Marker^https://fonts.googleapis.com/css?family=Permanent+Marker">
      <root>
        <mxCell id="0" />
        <mxCell id="1" parent="0" />
        <mxCell id="gzNkbpyORmyLpdVIkSuP-48" value="" style="edgeStyle=entityRelationEdgeStyle;fontSize=12;html=1;endArrow=ERoneToMany;" edge="1" parent="1" source="gzNkbpyORmyLpdVIkSuP-83" target="gzNkbpyORmyLpdVIkSuP-91">
          <mxGeometry width="100" height="100" relative="1" as="geometry">
            <mxPoint x="60" y="140" as="sourcePoint" />
            <mxPoint x="30" y="265" as="targetPoint" />
          </mxGeometry>
        </mxCell>
        <mxCell id="gzNkbpyORmyLpdVIkSuP-72" value="Owns" style="shape=rhombus;perimeter=rhombusPerimeter;whiteSpace=wrap;html=1;align=center;" vertex="1" parent="1">
          <mxGeometry x="-320" y="780" width="120" height="60" as="geometry" />
        </mxCell>
        <mxCell id="gzNkbpyORmyLpdVIkSuP-73" value="" style="edgeStyle=entityRelationEdgeStyle;fontSize=12;html=1;endArrow=ERoneToMany;" edge="1" parent="1" source="gzNkbpyORmyLpdVIkSuP-106" target="gzNkbpyORmyLpdVIkSuP-72">
          <mxGeometry width="100" height="100" relative="1" as="geometry">
            <mxPoint x="460" y="635" as="sourcePoint" />
            <mxPoint x="50" y="335" as="targetPoint" />
          </mxGeometry>
        </mxCell>
        <mxCell id="gzNkbpyORmyLpdVIkSuP-77" value="" style="edgeStyle=entityRelationEdgeStyle;fontSize=12;html=1;endArrow=ERzeroToOne;endFill=1;" edge="1" parent="1" source="gzNkbpyORmyLpdVIkSuP-74" target="gzNkbpyORmyLpdVIkSuP-107">
          <mxGeometry width="100" height="100" relative="1" as="geometry">
            <mxPoint x="500" y="250" as="sourcePoint" />
            <mxPoint x="610" y="365" as="targetPoint" />
          </mxGeometry>
        </mxCell>
        <mxCell id="gzNkbpyORmyLpdVIkSuP-74" value="Has" style="shape=rhombus;perimeter=rhombusPerimeter;whiteSpace=wrap;html=1;align=center;" vertex="1" parent="1">
          <mxGeometry x="320" y="230" width="120" height="60" as="geometry" />
        </mxCell>
        <mxCell id="gzNkbpyORmyLpdVIkSuP-78" value="" style="edgeStyle=entityRelationEdgeStyle;fontSize=12;html=1;endArrow=ERzeroToOne;endFill=1;" edge="1" parent="1" source="gzNkbpyORmyLpdVIkSuP-91" target="gzNkbpyORmyLpdVIkSuP-74">
          <mxGeometry width="100" height="100" relative="1" as="geometry">
            <mxPoint x="190" y="265" as="sourcePoint" />
            <mxPoint x="590" y="135" as="targetPoint" />
          </mxGeometry>
        </mxCell>
        <mxCell id="gzNkbpyORmyLpdVIkSuP-80" value="" style="edgeStyle=entityRelationEdgeStyle;fontSize=12;html=1;endArrow=ERoneToMany;" edge="1" parent="1" source="gzNkbpyORmyLpdVIkSuP-81" target="gzNkbpyORmyLpdVIkSuP-107">
          <mxGeometry width="100" height="100" relative="1" as="geometry">
            <mxPoint x="290" y="400" as="sourcePoint" />
            <mxPoint x="610" y="365" as="targetPoint" />
          </mxGeometry>
        </mxCell>
        <mxCell id="gzNkbpyORmyLpdVIkSuP-81" value="Tracks" style="shape=rhombus;perimeter=rhombusPerimeter;whiteSpace=wrap;html=1;align=center;" vertex="1" parent="1">
          <mxGeometry x="40" y="450" width="120" height="60" as="geometry" />
        </mxCell>
        <mxCell id="gzNkbpyORmyLpdVIkSuP-82" value="" style="edgeStyle=entityRelationEdgeStyle;fontSize=12;html=1;endArrow=ERoneToMany;" edge="1" parent="1" source="gzNkbpyORmyLpdVIkSuP-97" target="gzNkbpyORmyLpdVIkSuP-81">
          <mxGeometry width="100" height="100" relative="1" as="geometry">
            <mxPoint x="50" y="595" as="sourcePoint" />
            <mxPoint x="590" y="135" as="targetPoint" />
          </mxGeometry>
        </mxCell>
        <mxCell id="gzNkbpyORmyLpdVIkSuP-83" value="Contains" style="shape=rhombus;perimeter=rhombusPerimeter;whiteSpace=wrap;html=1;align=center;" vertex="1" parent="1">
          <mxGeometry x="-130" y="330" width="120" height="60" as="geometry" />
        </mxCell>
        <mxCell id="gzNkbpyORmyLpdVIkSuP-84" value="" style="edgeStyle=entityRelationEdgeStyle;fontSize=12;html=1;endArrow=ERoneToMany;" edge="1" parent="1" source="gzNkbpyORmyLpdVIkSuP-97" target="gzNkbpyORmyLpdVIkSuP-83">
          <mxGeometry width="100" height="100" relative="1" as="geometry">
            <mxPoint x="50" y="595" as="sourcePoint" />
            <mxPoint x="80" y="145" as="targetPoint" />
          </mxGeometry>
        </mxCell>
        <mxCell id="gzNkbpyORmyLpdVIkSuP-103" style="edgeStyle=orthogonalEdgeStyle;rounded=0;orthogonalLoop=1;jettySize=auto;html=1;" edge="1" parent="1" source="gzNkbpyORmyLpdVIkSuP-88" target="gzNkbpyORmyLpdVIkSuP-91">
          <mxGeometry relative="1" as="geometry" />
        </mxCell>
        <mxCell id="gzNkbpyORmyLpdVIkSuP-88" value="pictureOnCube" style="ellipse;whiteSpace=wrap;html=1;align=center;" vertex="1" parent="1">
          <mxGeometry x="-170" y="190" width="100" height="40" as="geometry" />
        </mxCell>
        <mxCell id="gzNkbpyORmyLpdVIkSuP-102" style="edgeStyle=orthogonalEdgeStyle;rounded=0;orthogonalLoop=1;jettySize=auto;html=1;" edge="1" parent="1" source="gzNkbpyORmyLpdVIkSuP-89" target="gzNkbpyORmyLpdVIkSuP-91">
          <mxGeometry relative="1" as="geometry" />
        </mxCell>
        <mxCell id="gzNkbpyORmyLpdVIkSuP-89" value="name" style="ellipse;whiteSpace=wrap;html=1;align=center;" vertex="1" parent="1">
          <mxGeometry x="-170" y="130" width="100" height="40" as="geometry" />
        </mxCell>
        <mxCell id="gzNkbpyORmyLpdVIkSuP-104" style="edgeStyle=orthogonalEdgeStyle;rounded=0;orthogonalLoop=1;jettySize=auto;html=1;" edge="1" parent="1" source="gzNkbpyORmyLpdVIkSuP-90" target="gzNkbpyORmyLpdVIkSuP-91">
          <mxGeometry relative="1" as="geometry" />
        </mxCell>
        <mxCell id="gzNkbpyORmyLpdVIkSuP-90" value="cubeID" style="ellipse;whiteSpace=wrap;html=1;align=center;" vertex="1" parent="1">
          <mxGeometry x="-170" y="240" width="100" height="40" as="geometry" />
        </mxCell>
        <mxCell id="gzNkbpyORmyLpdVIkSuP-91" value="Side" style="whiteSpace=wrap;html=1;align=center;" vertex="1" parent="1">
          <mxGeometry x="60" y="240" width="100" height="40" as="geometry" />
        </mxCell>
        <mxCell id="gzNkbpyORmyLpdVIkSuP-101" style="edgeStyle=orthogonalEdgeStyle;rounded=0;orthogonalLoop=1;jettySize=auto;html=1;" edge="1" parent="1" source="gzNkbpyORmyLpdVIkSuP-96" target="gzNkbpyORmyLpdVIkSuP-91">
          <mxGeometry relative="1" as="geometry" />
        </mxCell>
        <mxCell id="gzNkbpyORmyLpdVIkSuP-96" value="sideID" style="ellipse;whiteSpace=wrap;html=1;align=center;fontStyle=4;" vertex="1" parent="1">
          <mxGeometry x="-170" y="70" width="100" height="40" as="geometry" />
        </mxCell>
        <mxCell id="gzNkbpyORmyLpdVIkSuP-97" value="Cube" style="whiteSpace=wrap;html=1;align=center;" vertex="1" parent="1">
          <mxGeometry x="-540" y="340" width="100" height="40" as="geometry" />
        </mxCell>
        <mxCell id="gzNkbpyORmyLpdVIkSuP-98" value="" style="edgeStyle=entityRelationEdgeStyle;fontSize=12;html=1;endArrow=ERoneToMany;" edge="1" parent="1" source="gzNkbpyORmyLpdVIkSuP-72" target="gzNkbpyORmyLpdVIkSuP-97">
          <mxGeometry width="100" height="100" relative="1" as="geometry">
            <mxPoint x="350" y="640" as="sourcePoint" />
            <mxPoint x="50" y="595" as="targetPoint" />
          </mxGeometry>
        </mxCell>
        <mxCell id="gzNkbpyORmyLpdVIkSuP-106" value="User" style="whiteSpace=wrap;html=1;align=center;" vertex="1" parent="1">
          <mxGeometry x="10" y="810" width="100" height="40" as="geometry" />
        </mxCell>
        <mxCell id="gzNkbpyORmyLpdVIkSuP-107" value="Task" style="whiteSpace=wrap;html=1;align=center;" vertex="1" parent="1">
          <mxGeometry x="600" y="300" width="100" height="40" as="geometry" />
        </mxCell>
        <mxCell id="gzNkbpyORmyLpdVIkSuP-116" style="edgeStyle=orthogonalEdgeStyle;rounded=0;orthogonalLoop=1;jettySize=auto;html=1;" edge="1" parent="1" source="gzNkbpyORmyLpdVIkSuP-108" target="gzNkbpyORmyLpdVIkSuP-81">
          <mxGeometry relative="1" as="geometry" />
        </mxCell>
        <mxCell id="gzNkbpyORmyLpdVIkSuP-108" value="end" style="ellipse;whiteSpace=wrap;html=1;align=center;" vertex="1" parent="1">
          <mxGeometry x="210" y="670" width="100" height="40" as="geometry" />
        </mxCell>
        <mxCell id="gzNkbpyORmyLpdVIkSuP-118" style="edgeStyle=orthogonalEdgeStyle;rounded=0;orthogonalLoop=1;jettySize=auto;html=1;" edge="1" parent="1" source="gzNkbpyORmyLpdVIkSuP-109" target="gzNkbpyORmyLpdVIkSuP-81">
          <mxGeometry relative="1" as="geometry" />
        </mxCell>
        <mxCell id="gzNkbpyORmyLpdVIkSuP-109" value="dateEntered" style="ellipse;whiteSpace=wrap;html=1;align=center;" vertex="1" parent="1">
          <mxGeometry x="210" y="720" width="100" height="40" as="geometry" />
        </mxCell>
        <mxCell id="gzNkbpyORmyLpdVIkSuP-117" style="edgeStyle=orthogonalEdgeStyle;rounded=0;orthogonalLoop=1;jettySize=auto;html=1;" edge="1" parent="1" source="gzNkbpyORmyLpdVIkSuP-110" target="gzNkbpyORmyLpdVIkSuP-81">
          <mxGeometry relative="1" as="geometry" />
        </mxCell>
        <mxCell id="gzNkbpyORmyLpdVIkSuP-110" value="start" style="ellipse;whiteSpace=wrap;html=1;align=center;" vertex="1" parent="1">
          <mxGeometry x="210" y="620" width="100" height="40" as="geometry" />
        </mxCell>
        <mxCell id="gzNkbpyORmyLpdVIkSuP-114" style="edgeStyle=orthogonalEdgeStyle;rounded=0;orthogonalLoop=1;jettySize=auto;html=1;" edge="1" parent="1" source="gzNkbpyORmyLpdVIkSuP-111" target="gzNkbpyORmyLpdVIkSuP-81">
          <mxGeometry relative="1" as="geometry" />
        </mxCell>
        <mxCell id="gzNkbpyORmyLpdVIkSuP-112" value="taskID" style="ellipse;whiteSpace=wrap;html=1;align=center;fontStyle=4;" vertex="1" parent="1">
          <mxGeometry x="210" y="570" width="100" height="40" as="geometry" />
        </mxCell>
        <mxCell id="gzNkbpyORmyLpdVIkSuP-111" value="cubeID" style="ellipse;whiteSpace=wrap;html=1;align=center;fontStyle=4;" vertex="1" parent="1">
          <mxGeometry x="210" y="520" width="100" height="40" as="geometry" />
        </mxCell>
        <mxCell id="gzNkbpyORmyLpdVIkSuP-115" style="edgeStyle=orthogonalEdgeStyle;rounded=0;orthogonalLoop=1;jettySize=auto;html=1;" edge="1" parent="1" source="gzNkbpyORmyLpdVIkSuP-112" target="gzNkbpyORmyLpdVIkSuP-81">
          <mxGeometry relative="1" as="geometry">
            <mxPoint x="60" y="590" as="sourcePoint" />
            <mxPoint x="120" y="500" as="targetPoint" />
          </mxGeometry>
        </mxCell>
        <mxCell id="gzNkbpyORmyLpdVIkSuP-140" style="edgeStyle=orthogonalEdgeStyle;rounded=0;orthogonalLoop=1;jettySize=auto;html=1;" edge="1" parent="1" source="gzNkbpyORmyLpdVIkSuP-119" target="gzNkbpyORmyLpdVIkSuP-106">
          <mxGeometry relative="1" as="geometry" />
        </mxCell>
        <mxCell id="gzNkbpyORmyLpdVIkSuP-138" style="edgeStyle=orthogonalEdgeStyle;rounded=0;orthogonalLoop=1;jettySize=auto;html=1;" edge="1" parent="1" source="gzNkbpyORmyLpdVIkSuP-120" target="gzNkbpyORmyLpdVIkSuP-106">
          <mxGeometry relative="1" as="geometry" />
        </mxCell>
        <mxCell id="gzNkbpyORmyLpdVIkSuP-120" value="name" style="ellipse;whiteSpace=wrap;html=1;align=center;" vertex="1" parent="1">
          <mxGeometry x="180" y="880" width="100" height="40" as="geometry" />
        </mxCell>
        <mxCell id="gzNkbpyORmyLpdVIkSuP-139" style="edgeStyle=orthogonalEdgeStyle;rounded=0;orthogonalLoop=1;jettySize=auto;html=1;" edge="1" parent="1" source="gzNkbpyORmyLpdVIkSuP-119" target="gzNkbpyORmyLpdVIkSuP-106">
          <mxGeometry relative="1" as="geometry" />
        </mxCell>
        <mxCell id="gzNkbpyORmyLpdVIkSuP-121" value="email" style="ellipse;whiteSpace=wrap;html=1;align=center;" vertex="1" parent="1">
          <mxGeometry x="180" y="960" width="100" height="40" as="geometry" />
        </mxCell>
        <mxCell id="gzNkbpyORmyLpdVIkSuP-141" style="edgeStyle=orthogonalEdgeStyle;rounded=0;orthogonalLoop=1;jettySize=auto;html=1;entryX=0.5;entryY=1;entryDx=0;entryDy=0;" edge="1" parent="1" source="gzNkbpyORmyLpdVIkSuP-122" target="gzNkbpyORmyLpdVIkSuP-106">
          <mxGeometry relative="1" as="geometry" />
        </mxCell>
        <mxCell id="gzNkbpyORmyLpdVIkSuP-122" value="phone" style="ellipse;whiteSpace=wrap;html=1;align=center;" vertex="1" parent="1">
          <mxGeometry x="180" y="1030" width="100" height="40" as="geometry" />
        </mxCell>
        <mxCell id="gzNkbpyORmyLpdVIkSuP-143" style="edgeStyle=orthogonalEdgeStyle;rounded=0;orthogonalLoop=1;jettySize=auto;html=1;" edge="1" parent="1" source="gzNkbpyORmyLpdVIkSuP-123" target="gzNkbpyORmyLpdVIkSuP-107">
          <mxGeometry relative="1" as="geometry" />
        </mxCell>
        <mxCell id="gzNkbpyORmyLpdVIkSuP-123" value="task&lt;span style=&quot;color: rgba(0 , 0 , 0 , 0) ; font-family: monospace ; font-size: 0px&quot;&gt;%3CmxGraphModel%3E%3Croot%3E%3CmxCell%20id%3D%220%22%2F%3E%3CmxCell%20id%3D%221%22%20parent%3D%220%22%2F%3E%3CmxCell%20id%3D%222%22%20value%3D%22Attribute%22%20style%3D%22ellipse%3BwhiteSpace%3Dwrap%3Bhtml%3D1%3Balign%3Dcenter%3B%22%20vertex%3D%221%22%20parent%3D%221%22%3E%3CmxGeometry%20x%3D%22440%22%20y%3D%22700%22%20width%3D%22100%22%20height%3D%2240%22%20as%3D%22geometry%22%2F%3E%3C%2FmxCell%3E%3C%2Froot%3E%3C%2FmxGraphModel%3E&lt;/span&gt;&lt;span style=&quot;color: rgba(0 , 0 , 0 , 0) ; font-family: monospace ; font-size: 0px&quot;&gt;%3CmxGraphModel%3E%3Croot%3E%3CmxCell%20id%3D%220%22%2F%3E%3CmxCell%20id%3D%221%22%20parent%3D%220%22%2F%3E%3CmxCell%20id%3D%222%22%20value%3D%22Attribute%22%20style%3D%22ellipse%3BwhiteSpace%3Dwrap%3Bhtml%3D1%3Balign%3Dcenter%3B%22%20vertex%3D%221%22%20parent%3D%221%22%3E%3CmxGeometry%20x%3D%22440%22%20y%3D%22700%22%20width%3D%22100%22%20height%3D%2240%22%20as%3D%22geometry%22%2F%3E%3C%2FmxCell%3E%3C%2Froot%3E%3C%2FmxGraphModel%3E&lt;/span&gt;" style="ellipse;whiteSpace=wrap;html=1;align=center;" vertex="1" parent="1">
          <mxGeometry x="720" y="430" width="100" height="40" as="geometry" />
        </mxCell>
        <mxCell id="gzNkbpyORmyLpdVIkSuP-144" style="edgeStyle=orthogonalEdgeStyle;rounded=0;orthogonalLoop=1;jettySize=auto;html=1;" edge="1" parent="1" source="gzNkbpyORmyLpdVIkSuP-124" target="gzNkbpyORmyLpdVIkSuP-107">
          <mxGeometry relative="1" as="geometry" />
        </mxCell>
        <mxCell id="gzNkbpyORmyLpdVIkSuP-124" value="taskID" style="ellipse;whiteSpace=wrap;html=1;align=center;fontStyle=4;" vertex="1" parent="1">
          <mxGeometry x="720" y="380" width="100" height="40" as="geometry" />
        </mxCell>
        <mxCell id="gzNkbpyORmyLpdVIkSuP-142" style="edgeStyle=orthogonalEdgeStyle;rounded=0;orthogonalLoop=1;jettySize=auto;html=1;" edge="1" parent="1" source="gzNkbpyORmyLpdVIkSuP-125" target="gzNkbpyORmyLpdVIkSuP-107">
          <mxGeometry relative="1" as="geometry" />
        </mxCell>
        <mxCell id="gzNkbpyORmyLpdVIkSuP-125" value="billable" style="ellipse;whiteSpace=wrap;html=1;align=center;" vertex="1" parent="1">
          <mxGeometry x="720" y="480" width="100" height="40" as="geometry" />
        </mxCell>
        <mxCell id="gzNkbpyORmyLpdVIkSuP-132" style="edgeStyle=orthogonalEdgeStyle;rounded=0;orthogonalLoop=1;jettySize=auto;html=1;" edge="1" parent="1" source="gzNkbpyORmyLpdVIkSuP-127" target="gzNkbpyORmyLpdVIkSuP-97">
          <mxGeometry relative="1" as="geometry" />
        </mxCell>
        <mxCell id="gzNkbpyORmyLpdVIkSuP-133" style="edgeStyle=orthogonalEdgeStyle;rounded=0;orthogonalLoop=1;jettySize=auto;html=1;" edge="1" parent="1" source="gzNkbpyORmyLpdVIkSuP-126" target="gzNkbpyORmyLpdVIkSuP-97">
          <mxGeometry relative="1" as="geometry" />
        </mxCell>
        <mxCell id="gzNkbpyORmyLpdVIkSuP-134" style="edgeStyle=orthogonalEdgeStyle;rounded=0;orthogonalLoop=1;jettySize=auto;html=1;" edge="1" parent="1" source="gzNkbpyORmyLpdVIkSuP-99" target="gzNkbpyORmyLpdVIkSuP-97">
          <mxGeometry relative="1" as="geometry" />
        </mxCell>
        <mxCell id="gzNkbpyORmyLpdVIkSuP-135" style="edgeStyle=orthogonalEdgeStyle;rounded=0;orthogonalLoop=1;jettySize=auto;html=1;" edge="1" parent="1" source="gzNkbpyORmyLpdVIkSuP-128" target="gzNkbpyORmyLpdVIkSuP-97">
          <mxGeometry relative="1" as="geometry" />
        </mxCell>
        <mxCell id="gzNkbpyORmyLpdVIkSuP-136" style="edgeStyle=orthogonalEdgeStyle;rounded=0;orthogonalLoop=1;jettySize=auto;html=1;entryX=0.5;entryY=1;entryDx=0;entryDy=0;" edge="1" parent="1" source="gzNkbpyORmyLpdVIkSuP-129" target="gzNkbpyORmyLpdVIkSuP-97">
          <mxGeometry relative="1" as="geometry" />
        </mxCell>
        <mxCell id="gzNkbpyORmyLpdVIkSuP-99" value="cubeID" style="ellipse;whiteSpace=wrap;html=1;align=center;fontStyle=4;" vertex="1" parent="1">
          <mxGeometry x="-670" y="410" width="100" height="40" as="geometry" />
        </mxCell>
        <mxCell id="gzNkbpyORmyLpdVIkSuP-126" value="name" style="ellipse;whiteSpace=wrap;html=1;align=center;" vertex="1" parent="1">
          <mxGeometry x="-670" y="470" width="100" height="40" as="geometry" />
        </mxCell>
        <mxCell id="gzNkbpyORmyLpdVIkSuP-127" value="dateOnline" style="ellipse;whiteSpace=wrap;html=1;align=center;" vertex="1" parent="1">
          <mxGeometry x="-670" y="540" width="100" height="40" as="geometry" />
        </mxCell>
        <mxCell id="gzNkbpyORmyLpdVIkSuP-128" value="userID" style="ellipse;whiteSpace=wrap;html=1;align=center;" vertex="1" parent="1">
          <mxGeometry x="-670" y="610" width="100" height="40" as="geometry" />
        </mxCell>
        <mxCell id="gzNkbpyORmyLpdVIkSuP-129" value="lastReported" style="ellipse;whiteSpace=wrap;html=1;align=center;" vertex="1" parent="1">
          <mxGeometry x="-670" y="670" width="100" height="40" as="geometry" />
        </mxCell>
        <mxCell id="gzNkbpyORmyLpdVIkSuP-119" value="userID" style="ellipse;whiteSpace=wrap;html=1;align=center;fontStyle=4;" vertex="1" parent="1">
          <mxGeometry x="180" y="810" width="100" height="40" as="geometry" />
        </mxCell>
        <mxCell id="gzNkbpyORmyLpdVIkSuP-147" style="edgeStyle=orthogonalEdgeStyle;rounded=0;orthogonalLoop=1;jettySize=auto;html=1;" edge="1" parent="1" source="gzNkbpyORmyLpdVIkSuP-121" target="gzNkbpyORmyLpdVIkSuP-106">
          <mxGeometry relative="1" as="geometry">
            <mxPoint x="-90" y="830" as="sourcePoint" />
            <mxPoint x="-400" y="830" as="targetPoint" />
          </mxGeometry>
        </mxCell>
        <mxCell id="gzNkbpyORmyLpdVIkSuP-154" style="edgeStyle=orthogonalEdgeStyle;rounded=0;orthogonalLoop=1;jettySize=auto;html=1;" edge="1" parent="1" source="gzNkbpyORmyLpdVIkSuP-149" target="gzNkbpyORmyLpdVIkSuP-74">
          <mxGeometry relative="1" as="geometry" />
        </mxCell>
        <mxCell id="gzNkbpyORmyLpdVIkSuP-149" value="sideID" style="ellipse;whiteSpace=wrap;html=1;align=center;fontStyle=4;" vertex="1" parent="1">
          <mxGeometry x="480" y="70" width="100" height="40" as="geometry" />
        </mxCell>
        <mxCell id="gzNkbpyORmyLpdVIkSuP-153" style="edgeStyle=orthogonalEdgeStyle;rounded=0;orthogonalLoop=1;jettySize=auto;html=1;" edge="1" parent="1" source="gzNkbpyORmyLpdVIkSuP-150" target="gzNkbpyORmyLpdVIkSuP-74">
          <mxGeometry relative="1" as="geometry" />
        </mxCell>
        <mxCell id="gzNkbpyORmyLpdVIkSuP-150" value="taskID" style="ellipse;whiteSpace=wrap;html=1;align=center;fontStyle=4;" vertex="1" parent="1">
          <mxGeometry x="480" y="20" width="100" height="40" as="geometry" />
        </mxCell>
        <mxCell id="gzNkbpyORmyLpdVIkSuP-156" style="edgeStyle=orthogonalEdgeStyle;rounded=0;orthogonalLoop=1;jettySize=auto;html=1;" edge="1" parent="1" source="gzNkbpyORmyLpdVIkSuP-151" target="gzNkbpyORmyLpdVIkSuP-74">
          <mxGeometry relative="1" as="geometry" />
        </mxCell>
        <mxCell id="gzNkbpyORmyLpdVIkSuP-151" value="dateRemoved" style="ellipse;whiteSpace=wrap;html=1;align=center;" vertex="1" parent="1">
          <mxGeometry x="480" y="180" width="100" height="40" as="geometry" />
        </mxCell>
        <mxCell id="gzNkbpyORmyLpdVIkSuP-155" style="edgeStyle=orthogonalEdgeStyle;rounded=0;orthogonalLoop=1;jettySize=auto;html=1;" edge="1" parent="1" source="gzNkbpyORmyLpdVIkSuP-152" target="gzNkbpyORmyLpdVIkSuP-74">
          <mxGeometry relative="1" as="geometry" />
        </mxCell>
        <mxCell id="gzNkbpyORmyLpdVIkSuP-152" value="dateAssigned" style="ellipse;whiteSpace=wrap;html=1;align=center;" vertex="1" parent="1">
          <mxGeometry x="480" y="130" width="100" height="40" as="geometry" />
        </mxCell>
      </root>
    </mxGraphModel>
  </diagram>
</mxfile>
